<mxfile host="app.diagrams.net" modified="2022-01-06T11:09:20.566Z" agent="5.0 (Windows)" etag="rHm-63n5onbYAlbRZ1kn" version="16.2.2" type="github">
  <diagram name="Page-1" id="efa7a0a1-bf9b-a30e-e6df-94a7791c09e9">
    <mxGraphModel dx="847" dy="2054" grid="1" gridSize="10" guides="1" tooltips="1" connect="1" arrows="1" fold="1" page="1" pageScale="1" pageWidth="826" pageHeight="1169" background="none" math="0" shadow="0">
      <root>
        <mxCell id="0" />
        <mxCell id="1" parent="0" />
        <mxCell id="30" value="&lt;p style=&quot;margin: 0px ; margin-top: 4px ; text-align: center ; text-decoration: underline&quot;&gt;&lt;strong&gt;customer&lt;br&gt;&lt;/strong&gt;&lt;/p&gt;&lt;hr&gt;&lt;p style=&quot;margin: 0px ; margin-left: 8px&quot;&gt;&lt;br&gt;&lt;/p&gt;&lt;p style=&quot;margin: 0px ; margin-left: 8px&quot;&gt;&lt;br&gt;&lt;/p&gt;" style="verticalAlign=top;align=left;overflow=fill;fontSize=12;fontFamily=Helvetica;html=1;strokeColor=#003366;shadow=1;fillColor=#D4E1F5;fontColor=#003366" parent="1" vertex="1">
          <mxGeometry x="1020" y="400" width="140" height="20" as="geometry" />
        </mxCell>
        <mxCell id="t8lXOGNOe9PWVFbyQTcP-114" value="CRM GENERAL REST API" style="rounded=0;whiteSpace=wrap;html=1;fillColor=#d5e8d4;strokeColor=#82b366;" vertex="1" parent="1">
          <mxGeometry x="1130" y="-130" width="250" height="60" as="geometry" />
        </mxCell>
        <mxCell id="t8lXOGNOe9PWVFbyQTcP-116" value="GET /customers" style="rounded=0;whiteSpace=wrap;html=1;fillColor=#ffe6cc;strokeColor=#d79b00;" vertex="1" parent="1">
          <mxGeometry x="940" y="150" width="140" height="50" as="geometry" />
        </mxCell>
        <mxCell id="t8lXOGNOe9PWVFbyQTcP-117" value="array" style="rhombus;whiteSpace=wrap;html=1;" vertex="1" parent="1">
          <mxGeometry x="970" y="230" width="70" height="70" as="geometry" />
        </mxCell>
        <mxCell id="t8lXOGNOe9PWVFbyQTcP-118" value="" style="endArrow=classic;html=1;rounded=0;entryX=0.5;entryY=0;entryDx=0;entryDy=0;exitX=0.5;exitY=1;exitDx=0;exitDy=0;" edge="1" parent="1" source="t8lXOGNOe9PWVFbyQTcP-116" target="t8lXOGNOe9PWVFbyQTcP-117">
          <mxGeometry width="50" height="50" relative="1" as="geometry">
            <mxPoint x="1030" y="220" as="sourcePoint" />
            <mxPoint x="1009.5" y="260" as="targetPoint" />
          </mxGeometry>
        </mxCell>
        <mxCell id="t8lXOGNOe9PWVFbyQTcP-119" value="" style="endArrow=classic;html=1;rounded=0;exitX=0.5;exitY=1;exitDx=0;exitDy=0;entryX=0;entryY=0;entryDx=0;entryDy=0;" edge="1" parent="1" source="t8lXOGNOe9PWVFbyQTcP-117" target="30">
          <mxGeometry width="50" height="50" relative="1" as="geometry">
            <mxPoint x="1040" y="310" as="sourcePoint" />
            <mxPoint x="1020" y="310" as="targetPoint" />
          </mxGeometry>
        </mxCell>
        <mxCell id="t8lXOGNOe9PWVFbyQTcP-120" value="GET /customers/{id}" style="rounded=0;whiteSpace=wrap;html=1;fillColor=#ffe6cc;strokeColor=#d79b00;" vertex="1" parent="1">
          <mxGeometry x="1090" y="150" width="140" height="50" as="geometry" />
        </mxCell>
        <mxCell id="t8lXOGNOe9PWVFbyQTcP-123" value="" style="edgeStyle=orthogonalEdgeStyle;rounded=0;orthogonalLoop=1;jettySize=auto;html=1;" edge="1" parent="1" source="t8lXOGNOe9PWVFbyQTcP-121" target="30">
          <mxGeometry relative="1" as="geometry" />
        </mxCell>
        <mxCell id="t8lXOGNOe9PWVFbyQTcP-121" value="object" style="rhombus;whiteSpace=wrap;html=1;" vertex="1" parent="1">
          <mxGeometry x="1150" y="230" width="70" height="70" as="geometry" />
        </mxCell>
        <mxCell id="t8lXOGNOe9PWVFbyQTcP-122" value="" style="endArrow=classic;html=1;rounded=0;entryX=0.5;entryY=0;entryDx=0;entryDy=0;exitX=0.5;exitY=1;exitDx=0;exitDy=0;" edge="1" parent="1" source="t8lXOGNOe9PWVFbyQTcP-120" target="t8lXOGNOe9PWVFbyQTcP-121">
          <mxGeometry width="50" height="50" relative="1" as="geometry">
            <mxPoint x="1180" y="220" as="sourcePoint" />
            <mxPoint x="1159.5" y="260" as="targetPoint" />
          </mxGeometry>
        </mxCell>
        <mxCell id="t8lXOGNOe9PWVFbyQTcP-124" value="ONLY ACTIVE, add query param includeInactive for inactive customers as well" style="rounded=1;whiteSpace=wrap;html=1;fillColor=#fff2cc;strokeColor=#d6b656;" vertex="1" parent="1">
          <mxGeometry x="1020" y="80" width="160" height="60" as="geometry" />
        </mxCell>
        <mxCell id="t8lXOGNOe9PWVFbyQTcP-125" value="?expand=" style="ellipse;whiteSpace=wrap;html=1;fillColor=#e1d5e7;strokeColor=#9673a6;" vertex="1" parent="1">
          <mxGeometry x="1040" y="460" width="80" height="40" as="geometry" />
        </mxCell>
        <mxCell id="t8lXOGNOe9PWVFbyQTcP-126" value="ROUTES" style="rounded=0;whiteSpace=wrap;html=1;fillColor=#dae8fc;strokeColor=#6c8ebf;" vertex="1" parent="1">
          <mxGeometry x="1150" y="-10" width="220" height="60" as="geometry" />
        </mxCell>
        <mxCell id="t8lXOGNOe9PWVFbyQTcP-127" value="OBJECT DETAILS" style="rounded=0;whiteSpace=wrap;html=1;fillColor=#dae8fc;strokeColor=#6c8ebf;" vertex="1" parent="1">
          <mxGeometry x="2110" y="-10" width="220" height="60" as="geometry" />
        </mxCell>
        <mxCell id="t8lXOGNOe9PWVFbyQTcP-128" value="&lt;p style=&quot;margin: 0px ; margin-top: 4px ; text-align: center ; text-decoration: underline&quot;&gt;&lt;strong&gt;customer&lt;br&gt;&lt;/strong&gt;&lt;/p&gt;&lt;hr&gt;&lt;p style=&quot;margin: 0px ; margin-left: 8px&quot;&gt;id&lt;/p&gt;&lt;p style=&quot;margin: 0px ; margin-left: 8px&quot;&gt;name&lt;/p&gt;&lt;p style=&quot;margin: 0px ; margin-left: 8px&quot;&gt;website&lt;/p&gt;&lt;p style=&quot;margin: 0px ; margin-left: 8px&quot;&gt;is_active&lt;br&gt;&lt;/p&gt;&lt;p style=&quot;margin: 0px ; margin-left: 8px&quot;&gt;adviser_id&lt;br&gt;&lt;/p&gt;&lt;p style=&quot;margin: 0px ; margin-left: 8px&quot;&gt;&lt;br&gt;&lt;/p&gt;&lt;p style=&quot;margin: 0px ; margin-left: 8px&quot;&gt;&lt;br&gt;&lt;/p&gt;" style="verticalAlign=top;align=left;overflow=fill;fontSize=12;fontFamily=Helvetica;html=1;strokeColor=#003366;shadow=1;fillColor=#D4E1F5;fontColor=#003366" vertex="1" parent="1">
          <mxGeometry x="2020" y="100" width="140" height="130" as="geometry" />
        </mxCell>
        <mxCell id="t8lXOGNOe9PWVFbyQTcP-129" value="&lt;p style=&quot;margin: 0px ; margin-top: 4px ; text-align: center ; text-decoration: underline&quot;&gt;&lt;strong&gt;adviser&lt;br&gt;&lt;/strong&gt;&lt;/p&gt;&lt;hr&gt;&lt;p style=&quot;margin: 0px ; margin-left: 8px&quot;&gt;id&lt;/p&gt;&lt;p style=&quot;margin: 0px ; margin-left: 8px&quot;&gt;name&lt;/p&gt;&lt;p style=&quot;margin: 0px ; margin-left: 8px&quot;&gt;email&lt;/p&gt;&lt;p style=&quot;margin: 0px ; margin-left: 8px&quot;&gt;phone&lt;/p&gt;&lt;p style=&quot;margin: 0px ; margin-left: 8px&quot;&gt;work_phone&lt;br&gt;&lt;/p&gt;&lt;p style=&quot;margin: 0px ; margin-left: 8px&quot;&gt;&lt;br&gt;&lt;/p&gt;&lt;p style=&quot;margin: 0px ; margin-left: 8px&quot;&gt;&lt;br&gt;&lt;/p&gt;&lt;p style=&quot;margin: 0px ; margin-left: 8px&quot;&gt;&lt;br&gt;&lt;/p&gt;" style="verticalAlign=top;align=left;overflow=fill;fontSize=12;fontFamily=Helvetica;html=1;strokeColor=#003366;shadow=1;fillColor=#D4E1F5;fontColor=#003366" vertex="1" parent="1">
          <mxGeometry x="2200" y="100" width="140" height="130" as="geometry" />
        </mxCell>
        <mxCell id="t8lXOGNOe9PWVFbyQTcP-130" value="&lt;p style=&quot;margin: 0px ; margin-top: 4px ; text-align: center ; text-decoration: underline&quot;&gt;&lt;strong&gt;employee&lt;br&gt;&lt;/strong&gt;&lt;/p&gt;&lt;hr&gt;&lt;p style=&quot;margin: 0px ; margin-left: 8px&quot;&gt;id&lt;/p&gt;&lt;p style=&quot;margin: 0px ; margin-left: 8px&quot;&gt;name&lt;/p&gt;&lt;p style=&quot;margin: 0px ; margin-left: 8px&quot;&gt;email&lt;/p&gt;&lt;p style=&quot;margin: 0px ; margin-left: 8px&quot;&gt;phone&lt;/p&gt;&lt;p style=&quot;margin: 0px ; margin-left: 8px&quot;&gt;work_phone&lt;/p&gt;&lt;p style=&quot;margin: 0px ; margin-left: 8px&quot;&gt;is_active&lt;br&gt;&lt;/p&gt;&lt;p style=&quot;margin: 0px ; margin-left: 8px&quot;&gt;&lt;br&gt;&lt;/p&gt;&lt;p style=&quot;margin: 0px ; margin-left: 8px&quot;&gt;&lt;br&gt;&lt;/p&gt;&lt;p style=&quot;margin: 0px ; margin-left: 8px&quot;&gt;&lt;br&gt;&lt;/p&gt;" style="verticalAlign=top;align=left;overflow=fill;fontSize=12;fontFamily=Helvetica;html=1;strokeColor=#003366;shadow=1;fillColor=#D4E1F5;fontColor=#003366" vertex="1" parent="1">
          <mxGeometry x="2380" y="100" width="140" height="130" as="geometry" />
        </mxCell>
        <mxCell id="t8lXOGNOe9PWVFbyQTcP-131" value="&lt;p style=&quot;margin: 0px ; margin-top: 4px ; text-align: center ; text-decoration: underline&quot;&gt;&lt;strong&gt;adviser&lt;br&gt;&lt;/strong&gt;&lt;/p&gt;&lt;hr&gt;&lt;p style=&quot;margin: 0px ; margin-left: 8px&quot;&gt;&lt;br&gt;&lt;/p&gt;&lt;p style=&quot;margin: 0px ; margin-left: 8px&quot;&gt;&lt;br&gt;&lt;/p&gt;" style="verticalAlign=top;align=left;overflow=fill;fontSize=12;fontFamily=Helvetica;html=1;strokeColor=#003366;shadow=1;fillColor=#D4E1F5;fontColor=#003366" vertex="1" parent="1">
          <mxGeometry x="870" y="530" width="140" height="20" as="geometry" />
        </mxCell>
        <mxCell id="t8lXOGNOe9PWVFbyQTcP-132" value="" style="endArrow=classic;html=1;rounded=0;entryX=1;entryY=0;entryDx=0;entryDy=0;exitX=0;exitY=1;exitDx=0;exitDy=0;" edge="1" parent="1" source="t8lXOGNOe9PWVFbyQTcP-125" target="t8lXOGNOe9PWVFbyQTcP-131">
          <mxGeometry width="50" height="50" relative="1" as="geometry">
            <mxPoint x="1270" y="410" as="sourcePoint" />
            <mxPoint x="1320" y="360" as="targetPoint" />
          </mxGeometry>
        </mxCell>
        <mxCell id="t8lXOGNOe9PWVFbyQTcP-133" value="" style="endArrow=classic;html=1;rounded=0;entryX=0.5;entryY=0;entryDx=0;entryDy=0;exitX=0.5;exitY=1;exitDx=0;exitDy=0;" edge="1" parent="1" source="30" target="t8lXOGNOe9PWVFbyQTcP-125">
          <mxGeometry width="50" height="50" relative="1" as="geometry">
            <mxPoint x="1270" y="410" as="sourcePoint" />
            <mxPoint x="1320" y="360" as="targetPoint" />
          </mxGeometry>
        </mxCell>
        <mxCell id="t8lXOGNOe9PWVFbyQTcP-134" value="&lt;p style=&quot;margin: 0px ; margin-top: 4px ; text-align: center ; text-decoration: underline&quot;&gt;&lt;strong&gt;customer-product&lt;br&gt;&lt;/strong&gt;&lt;/p&gt;&lt;hr&gt;&lt;p style=&quot;margin: 0px ; margin-left: 8px&quot;&gt;id&lt;/p&gt;&lt;p style=&quot;margin: 0px ; margin-left: 8px&quot;&gt;customer_id&lt;/p&gt;&lt;p style=&quot;margin: 0px ; margin-left: 8px&quot;&gt;name&lt;br&gt;&lt;/p&gt;&lt;p style=&quot;margin: 0px ; margin-left: 8px&quot;&gt;is_active&lt;/p&gt;&lt;p style=&quot;margin: 0px ; margin-left: 8px&quot;&gt;sub_category_id&lt;/p&gt;&lt;p style=&quot;margin: 0px ; margin-left: 8px&quot;&gt;responsible_employee_id&lt;br&gt;&lt;/p&gt;&lt;p style=&quot;margin: 0px ; margin-left: 8px&quot;&gt;value&lt;/p&gt;&lt;p style=&quot;margin: 0px ; margin-left: 8px&quot;&gt;amount_paid&lt;/p&gt;&lt;p style=&quot;margin: 0px ; margin-left: 8px&quot;&gt;domain&lt;/p&gt;&lt;p style=&quot;margin: 0px ; margin-left: 8px&quot;&gt;period&lt;/p&gt;&lt;p style=&quot;margin: 0px ; margin-left: 8px&quot;&gt;road_map_id&lt;/p&gt;&lt;p style=&quot;margin: 0px ; margin-left: 8px&quot;&gt;status&lt;/p&gt;&lt;p style=&quot;margin: 0px ; margin-left: 8px&quot;&gt;status_id&lt;/p&gt;&lt;p style=&quot;margin: 0px ; margin-left: 8px&quot;&gt;paid_status&lt;/p&gt;&lt;p style=&quot;margin: 0px ; margin-left: 8px&quot;&gt;paid_status_id&lt;br&gt;&lt;/p&gt;&lt;p style=&quot;margin: 0px ; margin-left: 8px&quot;&gt;&lt;br&gt;&lt;/p&gt;&lt;p style=&quot;margin: 0px ; margin-left: 8px&quot;&gt;&lt;br&gt;&lt;/p&gt;&lt;p style=&quot;margin: 0px ; margin-left: 8px&quot;&gt;&lt;br&gt;&lt;/p&gt;&lt;p style=&quot;margin: 0px ; margin-left: 8px&quot;&gt;&lt;br&gt;&lt;/p&gt;" style="verticalAlign=top;align=left;overflow=fill;fontSize=12;fontFamily=Helvetica;html=1;strokeColor=#003366;shadow=1;fillColor=#D4E1F5;fontColor=#003366" vertex="1" parent="1">
          <mxGeometry x="2550" y="100" width="160" height="260" as="geometry" />
        </mxCell>
        <mxCell id="t8lXOGNOe9PWVFbyQTcP-135" value="&lt;p style=&quot;margin: 0px ; margin-top: 4px ; text-align: center ; text-decoration: underline&quot;&gt;&lt;strong&gt;product&lt;br&gt;&lt;/strong&gt;&lt;/p&gt;&lt;hr&gt;&lt;p style=&quot;margin: 0px ; margin-left: 8px&quot;&gt;id&lt;/p&gt;&lt;p style=&quot;margin: 0px ; margin-left: 8px&quot;&gt;is_primary&lt;br&gt;&lt;/p&gt;&lt;p style=&quot;margin: 0px ; margin-left: 8px&quot;&gt;&lt;br&gt;&lt;/p&gt;&lt;p style=&quot;margin: 0px ; margin-left: 8px&quot;&gt;&lt;br&gt;&lt;/p&gt;" style="verticalAlign=top;align=left;overflow=fill;fontSize=12;fontFamily=Helvetica;html=1;strokeColor=#003366;shadow=1;fillColor=#D4E1F5;fontColor=#003366" vertex="1" parent="1">
          <mxGeometry x="2740" y="100" width="140" height="130" as="geometry" />
        </mxCell>
        <mxCell id="t8lXOGNOe9PWVFbyQTcP-136" value="GET /customers/{id}/products" style="rounded=0;whiteSpace=wrap;html=1;fillColor=#ffe6cc;strokeColor=#d79b00;" vertex="1" parent="1">
          <mxGeometry x="1239" y="150" width="221" height="50" as="geometry" />
        </mxCell>
        <mxCell id="t8lXOGNOe9PWVFbyQTcP-137" value="" style="endArrow=classic;html=1;rounded=0;exitX=0.5;exitY=1;exitDx=0;exitDy=0;entryX=0.5;entryY=0;entryDx=0;entryDy=0;" edge="1" parent="1" source="t8lXOGNOe9PWVFbyQTcP-136" target="t8lXOGNOe9PWVFbyQTcP-138">
          <mxGeometry width="50" height="50" relative="1" as="geometry">
            <mxPoint x="1170" y="210" as="sourcePoint" />
            <mxPoint x="1350" y="250" as="targetPoint" />
          </mxGeometry>
        </mxCell>
        <mxCell id="t8lXOGNOe9PWVFbyQTcP-138" value="array" style="rhombus;whiteSpace=wrap;html=1;" vertex="1" parent="1">
          <mxGeometry x="1314.5" y="260" width="70" height="70" as="geometry" />
        </mxCell>
        <mxCell id="t8lXOGNOe9PWVFbyQTcP-139" value="&lt;p style=&quot;margin: 0px ; margin-top: 4px ; text-align: center ; text-decoration: underline&quot;&gt;&lt;strong&gt;customer-product&lt;br&gt;&lt;/strong&gt;&lt;/p&gt;&lt;hr&gt;" style="verticalAlign=top;align=left;overflow=fill;fontSize=12;fontFamily=Helvetica;html=1;strokeColor=#003366;shadow=1;fillColor=#D4E1F5;fontColor=#003366" vertex="1" parent="1">
          <mxGeometry x="1264.5" y="400" width="170" height="20" as="geometry" />
        </mxCell>
        <mxCell id="t8lXOGNOe9PWVFbyQTcP-140" value="" style="endArrow=classic;html=1;rounded=0;entryX=0.5;entryY=0;entryDx=0;entryDy=0;exitX=0.5;exitY=1;exitDx=0;exitDy=0;" edge="1" parent="1" source="t8lXOGNOe9PWVFbyQTcP-138" target="t8lXOGNOe9PWVFbyQTcP-139">
          <mxGeometry width="50" height="50" relative="1" as="geometry">
            <mxPoint x="1790" y="270" as="sourcePoint" />
            <mxPoint x="1840" y="220" as="targetPoint" />
          </mxGeometry>
        </mxCell>
        <mxCell id="t8lXOGNOe9PWVFbyQTcP-141" value="?expand=" style="ellipse;whiteSpace=wrap;html=1;fillColor=#e1d5e7;strokeColor=#9673a6;" vertex="1" parent="1">
          <mxGeometry x="1309.5" y="460" width="80" height="40" as="geometry" />
        </mxCell>
        <mxCell id="t8lXOGNOe9PWVFbyQTcP-142" value="" style="endArrow=classic;html=1;rounded=0;entryX=0.5;entryY=0;entryDx=0;entryDy=0;exitX=0.5;exitY=1;exitDx=0;exitDy=0;" edge="1" parent="1" source="t8lXOGNOe9PWVFbyQTcP-139" target="t8lXOGNOe9PWVFbyQTcP-141">
          <mxGeometry width="50" height="50" relative="1" as="geometry">
            <mxPoint x="1100" y="430" as="sourcePoint" />
            <mxPoint x="1090" y="470" as="targetPoint" />
          </mxGeometry>
        </mxCell>
        <mxCell id="t8lXOGNOe9PWVFbyQTcP-143" value="&lt;p style=&quot;margin: 0px ; margin-top: 4px ; text-align: center ; text-decoration: underline&quot;&gt;&lt;strong&gt;responsible-employee&lt;br&gt;&lt;/strong&gt;&lt;/p&gt;" style="verticalAlign=top;align=left;overflow=fill;fontSize=12;fontFamily=Helvetica;html=1;strokeColor=#003366;shadow=1;fillColor=#D4E1F5;fontColor=#003366" vertex="1" parent="1">
          <mxGeometry x="1210" y="540" width="170" height="20" as="geometry" />
        </mxCell>
        <mxCell id="t8lXOGNOe9PWVFbyQTcP-144" value="" style="endArrow=classic;html=1;rounded=0;entryX=0.5;entryY=0;entryDx=0;entryDy=0;exitX=0;exitY=1;exitDx=0;exitDy=0;" edge="1" parent="1" source="t8lXOGNOe9PWVFbyQTcP-141" target="t8lXOGNOe9PWVFbyQTcP-143">
          <mxGeometry width="50" height="50" relative="1" as="geometry">
            <mxPoint x="1061.7157287525379" y="504.1421356237306" as="sourcePoint" />
            <mxPoint x="1020" y="540" as="targetPoint" />
          </mxGeometry>
        </mxCell>
        <mxCell id="t8lXOGNOe9PWVFbyQTcP-146" value="GET /customers/{id}/products/{id}" style="rounded=0;whiteSpace=wrap;html=1;fillColor=#ffe6cc;strokeColor=#d79b00;" vertex="1" parent="1">
          <mxGeometry x="1470" y="150" width="260" height="50" as="geometry" />
        </mxCell>
        <mxCell id="t8lXOGNOe9PWVFbyQTcP-147" value="" style="endArrow=classic;html=1;rounded=0;exitX=0.25;exitY=1;exitDx=0;exitDy=0;entryX=1;entryY=0;entryDx=0;entryDy=0;" edge="1" parent="1" source="t8lXOGNOe9PWVFbyQTcP-146" target="t8lXOGNOe9PWVFbyQTcP-148">
          <mxGeometry width="50" height="50" relative="1" as="geometry">
            <mxPoint x="1359.5" y="210" as="sourcePoint" />
            <mxPoint x="1480" y="270" as="targetPoint" />
            <Array as="points">
              <mxPoint x="1510" y="230" />
            </Array>
          </mxGeometry>
        </mxCell>
        <mxCell id="t8lXOGNOe9PWVFbyQTcP-148" value="object" style="rhombus;whiteSpace=wrap;html=1;" vertex="1" parent="1">
          <mxGeometry x="1400" y="260" width="70" height="70" as="geometry" />
        </mxCell>
        <mxCell id="t8lXOGNOe9PWVFbyQTcP-149" value="" style="endArrow=classic;html=1;rounded=0;exitX=0.5;exitY=1;exitDx=0;exitDy=0;entryX=0.75;entryY=0;entryDx=0;entryDy=0;" edge="1" parent="1" source="t8lXOGNOe9PWVFbyQTcP-148" target="t8lXOGNOe9PWVFbyQTcP-139">
          <mxGeometry width="50" height="50" relative="1" as="geometry">
            <mxPoint x="1590" y="380" as="sourcePoint" />
            <mxPoint x="1640" y="330" as="targetPoint" />
          </mxGeometry>
        </mxCell>
      </root>
    </mxGraphModel>
  </diagram>
</mxfile>
